<svg width="212" height="89" viewBox="0 0 212 89" fill="none" xmlns="http://www.w3.org/2000/svg">
<path d="M203.962 30.3098V22.2394L205.575 22.9842C205.68 23.0326 205.79 23.0559 205.898 23.0559C206.191 23.0559 206.472 22.8865 206.62 22.5938C206.822 22.1926 206.709 21.6911 206.358 21.4354L191.829 10.8592C191.924 10.3111 191.976 9.7468 191.976 9.16959C191.976 4.1134 188.16 0 183.47 0C178.78 0 174.965 4.1134 174.965 9.16959C174.965 15.8379 177.493 21.4513 179.938 26.8799C180.629 28.4153 181.306 29.9222 181.907 31.4141C181.285 31.1642 180.608 30.9343 179.874 30.7212C177.018 29.8926 173.61 29.0455 169.979 29.0455C168.241 29.0455 166.571 29.2313 164.874 29.6138C158.784 30.9872 155 35.2882 155 40.8383C155 46.7411 157.982 48.5806 158.109 48.656C158.433 48.8482 158.837 48.7836 159.095 48.4973L161.101 46.2715C162.231 47.3535 164.745 49.4608 169.441 50.6338V53.7342H164.509C163.471 53.7342 162.631 54.6411 162.631 55.7596V60.0633C162.631 61.1818 163.472 62.0887 164.51 62.0887C165.547 62.0887 166.388 61.1818 166.388 60.0633V57.7849H169.441V72.9747C169.441 74.0932 170.282 75 171.319 75H175.311C176.349 75 177.19 74.0932 177.19 72.9747C177.19 71.8562 176.349 70.9494 175.311 70.9494H173.199V57.7849H182.389C183.148 57.7849 183.833 57.2922 184.124 56.5363C184.415 55.7803 184.256 54.9097 183.72 54.3299L180.538 50.8867C182.211 50.3745 183.671 49.5322 184.855 48.3796C186.822 46.4659 187.905 43.7877 187.905 40.8381C187.905 39.5966 187.801 38.4953 187.577 37.5148C186.955 33.1865 185.112 29.0931 183.318 25.1105C182.223 22.6804 181.112 20.2101 180.255 17.6569C181.248 18.0951 182.333 18.3389 183.47 18.3389C185.845 18.3389 187.996 17.2827 189.54 15.5845L200.204 20.5055V30.1822C198.326 33.1434 192.337 43.3176 192.337 48.0593C192.337 53.8294 196.691 58.5236 202.043 58.5236C207.395 58.5236 211.75 53.8294 211.75 48.0593C211.75 43.3834 205.84 33.4255 203.962 30.3098ZM183.47 8.07136C184.033 8.07136 184.489 8.56276 184.489 9.16934C184.489 9.77592 184.033 10.2678 183.47 10.2678C182.907 10.2678 182.452 9.77617 182.452 9.16934C182.452 8.56276 182.908 8.07136 183.47 8.07136ZM173.199 53.7342V51.3077C173.903 51.394 174.869 51.4479 175.769 51.4654L177.865 53.7342H173.199V53.7342ZM202.043 54.473C198.762 54.473 196.093 51.5958 196.093 48.0593C196.093 45.716 199.2 39.4789 202.043 34.5834C204.886 39.4776 207.992 45.714 207.992 48.0593C207.992 51.5958 205.323 54.473 202.043 54.473Z" fill="#CD4D36"/>
<path d="M24.1992 47.5547C24.1992 46.0052 23.6523 44.8203 22.5586 44C21.4648 43.1615 19.4961 42.2865 16.6523 41.375C13.8086 40.4453 11.5573 39.5339 9.89844 38.6406C5.3776 36.1979 3.11719 32.9076 3.11719 28.7695C3.11719 26.6185 3.71875 24.7044 4.92188 23.0273C6.14323 21.332 7.88411 20.0104 10.1445 19.0625C12.4232 18.1146 14.9753 17.6406 17.8008 17.6406C20.6445 17.6406 23.1784 18.1602 25.4023 19.1992C27.6263 20.2201 29.349 21.6693 30.5703 23.5469C31.8099 25.4245 32.4297 27.5573 32.4297 29.9453H24.2266C24.2266 28.1224 23.6523 26.7096 22.5039 25.707C21.3555 24.6862 19.7422 24.1758 17.6641 24.1758C15.6589 24.1758 14.1003 24.6042 12.9883 25.4609C11.8763 26.2995 11.3203 27.4115 11.3203 28.7969C11.3203 30.0911 11.9674 31.1758 13.2617 32.0508C14.5742 32.9258 16.4974 33.7461 19.0312 34.5117C23.6979 35.9154 27.0977 37.6562 29.2305 39.7344C31.3633 41.8125 32.4297 44.401 32.4297 47.5C32.4297 50.9453 31.1263 53.6523 28.5195 55.6211C25.9128 57.5716 22.4036 58.5469 17.9922 58.5469C14.9297 58.5469 12.1406 57.9909 9.625 56.8789C7.10938 55.7487 5.1862 54.2083 3.85547 52.2578C2.54297 50.3073 1.88672 48.0469 1.88672 45.4766H10.1172C10.1172 49.8698 12.7422 52.0664 17.9922 52.0664C19.9427 52.0664 21.4648 51.6745 22.5586 50.8906C23.6523 50.0885 24.1992 48.9766 24.1992 47.5547ZM67.9766 24.832H55.7812V58H47.5781V24.832H35.5469V18.1875H67.9766V24.832ZM104.562 38.9961C104.562 42.7148 103.961 45.9505 102.758 48.7031C101.555 51.4375 99.8867 53.6341 97.7539 55.293L104.371 60.4883L99.1484 65.1094L90.6719 58.3008C89.7057 58.4648 88.7031 58.5469 87.6641 58.5469C84.3646 58.5469 81.4206 57.7539 78.832 56.168C76.2435 54.582 74.2383 52.3216 72.8164 49.3867C71.3945 46.4336 70.6745 43.043 70.6562 39.2148V37.2461C70.6562 33.3268 71.3581 29.8815 72.7617 26.9102C74.1836 23.9206 76.1797 21.6328 78.75 20.0469C81.3385 18.4427 84.2917 17.6406 87.6094 17.6406C90.9271 17.6406 93.8711 18.4427 96.4414 20.0469C99.0299 21.6328 101.026 23.9206 102.43 26.9102C103.852 29.8815 104.562 33.3177 104.562 37.2188V38.9961ZM96.25 37.1914C96.25 33.0169 95.5026 29.8451 94.0078 27.6758C92.513 25.5065 90.3802 24.4219 87.6094 24.4219C84.8568 24.4219 82.7331 25.4974 81.2383 27.6484C79.7435 29.7812 78.987 32.9167 78.9688 37.0547V38.9961C78.9688 43.0612 79.7161 46.2148 81.2109 48.457C82.7057 50.6992 84.8568 51.8203 87.6641 51.8203C90.4167 51.8203 92.5312 50.7448 94.0078 48.5938C95.4844 46.4245 96.2318 43.2708 96.25 39.1328V37.1914ZM131.223 47.5547C131.223 46.0052 130.676 44.8203 129.582 44C128.488 43.1615 126.52 42.2865 123.676 41.375C120.832 40.4453 118.581 39.5339 116.922 38.6406C112.401 36.1979 110.141 32.9076 110.141 28.7695C110.141 26.6185 110.742 24.7044 111.945 23.0273C113.167 21.332 114.908 20.0104 117.168 19.0625C119.447 18.1146 121.999 17.6406 124.824 17.6406C127.668 17.6406 130.202 18.1602 132.426 19.1992C134.65 20.2201 136.372 21.6693 137.594 23.5469C138.833 25.4245 139.453 27.5573 139.453 29.9453H131.25C131.25 28.1224 130.676 26.7096 129.527 25.707C128.379 24.6862 126.766 24.1758 124.688 24.1758C122.682 24.1758 121.124 24.6042 120.012 25.4609C118.9 26.2995 118.344 27.4115 118.344 28.7969C118.344 30.0911 118.991 31.1758 120.285 32.0508C121.598 32.9258 123.521 33.7461 126.055 34.5117C130.721 35.9154 134.121 37.6562 136.254 39.7344C138.387 41.8125 139.453 44.401 139.453 47.5C139.453 50.9453 138.15 53.6523 135.543 55.6211C132.936 57.5716 129.427 58.5469 125.016 58.5469C121.953 58.5469 119.164 57.9909 116.648 56.8789C114.133 55.7487 112.21 54.2083 110.879 52.2578C109.566 50.3073 108.91 48.0469 108.91 45.4766H117.141C117.141 49.8698 119.766 52.0664 125.016 52.0664C126.966 52.0664 128.488 51.6745 129.582 50.8906C130.676 50.0885 131.223 48.9766 131.223 47.5547Z" fill="#E15F40"/>
</svg>
